<svg xmlns="http://www.w3.org/2000/svg" width="1280" height="1180"
     viewBox="0 0 1280 1180" font-family="Helvetica,Arial,sans-serif">
  <defs>
    <marker id="arrow" viewBox="0 0 10 10" refX="9" refY="5" markerWidth="7"
            markerHeight="7" orient="auto-start-reverse">
      <path d="M0,0 L10,5 L0,10 z" fill="#9aa4b2"/>
    </marker>
  </defs>
  <rect width="1280" height="1180" fill="#ffffff"/>
  <text x="40" y="28" font-size="20" font-weight="700" fill="#1a1a1a">DocExtract — module execution flow (one document)</text>
  <path d="M165.0,102 C165.0,121.0 165.0,121.0 165.0,140" fill="none" stroke="#9aa4b2" stroke-width="2" marker-end="url(#arrow)"/>
  <path d="M165.0,102 C165.0,171.0 165.0,171.0 165.0,240" fill="none" stroke="#9aa4b2" stroke-width="2" marker-end="url(#arrow)"/>
  <path d="M165.0,302 C165.0,331.0 165.0,331.0 165.0,360" fill="none" stroke="#9aa4b2" stroke-width="2" marker-end="url(#arrow)"/>
  <path d="M290,391.0 C310.0,391.0 310.0,391.0 330,391.0" fill="none" stroke="#9aa4b2" stroke-width="2" marker-end="url(#arrow)"/>
  <path d="M290,391.0 C455.0,391.0 455.0,391.0 620,391.0" fill="none" stroke="#9aa4b2" stroke-width="2" marker-end="url(#arrow)"/>
  <path d="M165.0,302 C165.0,386.0 165.0,386.0 165.0,470" fill="none" stroke="#9aa4b2" stroke-width="2" marker-end="url(#arrow)"/>
  <path d="M290,501.0 C345.0,501.0 345.0,483.0 400,483.0" fill="none" stroke="#9aa4b2" stroke-width="2" marker-end="url(#arrow)"/>
  <path d="M290,501.0 C345.0,501.0 345.0,555.0 400,555.0" fill="none" stroke="#9aa4b2" stroke-width="2" marker-end="url(#arrow)"/>
  <path d="M290,501.0 C495.0,501.0 495.0,483.0 700,483.0" fill="none" stroke="#9aa4b2" stroke-width="2" marker-end="url(#arrow)"/>
  <path d="M290,501.0 C495.0,501.0 495.0,555.0 700,555.0" fill="none" stroke="#9aa4b2" stroke-width="2" marker-end="url(#arrow)"/>
  <path d="M290,501.0 C645.0,501.0 645.0,483.0 1000,483.0" fill="none" stroke="#9aa4b2" stroke-width="2" marker-end="url(#arrow)"/>
  <path d="M290,501.0 C645.0,501.0 645.0,555.0 1000,555.0" fill="none" stroke="#9aa4b2" stroke-width="2" marker-end="url(#arrow)"/>
  <path d="M165.0,532 C165.0,571.0 165.0,571.0 165.0,610" fill="none" stroke="#9aa4b2" stroke-width="2" marker-end="url(#arrow)"/>
  <path d="M165.0,672 C165.0,686.0 165.0,686.0 165.0,700" fill="none" stroke="#9aa4b2" stroke-width="2" marker-end="url(#arrow)"/>
  <path d="M165.0,762 C165.0,776.0 165.0,776.0 165.0,790" fill="none" stroke="#9aa4b2" stroke-width="2" marker-end="url(#arrow)"/>
  <path d="M290,501.0 C310.0,501.0 310.0,921.0 330,921.0" fill="none" stroke="#9aa4b2" stroke-width="2" marker-end="url(#arrow)"/>
  <path d="M165.0,852 C165.0,871.0 165.0,871.0 165.0,890" fill="none" stroke="#9aa4b2" stroke-width="2" marker-end="url(#arrow)"/>
  <path d="M290,271.0 C455.0,271.0 455.0,731.0 620,731.0" fill="none" stroke="#9aa4b2" stroke-width="2" marker-end="url(#arrow)"/>
  <path d="M745.0,762 C745.0,781.0 745.0,781.0 745.0,800" fill="none" stroke="#9aa4b2" stroke-width="2" marker-end="url(#arrow)"/>
  <path d="M290,641.0 C455.0,641.0 455.0,831.0 620,831.0" fill="none" stroke="#9aa4b2" stroke-width="2" marker-end="url(#arrow)"/>
  <path d="M290,271.0 C455.0,271.0 455.0,1021.0 620,1021.0" fill="none" stroke="#9aa4b2" stroke-width="2" marker-end="url(#arrow)"/>
  <g>
    <rect x="40" y="40" width="250" height="62" rx="8"
          fill="#d7ecd9" stroke="#2f7d32" stroke-width="2"/>
    <rect x="40" y="40" width="6" height="62" rx="3" fill="#2f7d32"/>
    <text x="56" y="65" font-family="monospace" font-size="14"
          font-weight="700" fill="#1a1a1a">run_ingestion_job.py</text>
    <text x="56" y="85" font-family="Helvetica,Arial,sans-serif"
          font-size="12" fill="#444">discover_submissions() — scan volume</text>
  </g>
  <g>
    <rect x="40" y="140" width="250" height="62" rx="8"
          fill="#eef2f7" stroke="#3763a6" stroke-width="2"/>
    <rect x="40" y="140" width="6" height="62" rx="3" fill="#3763a6"/>
    <text x="56" y="165" font-family="monospace" font-size="14"
          font-weight="700" fill="#1a1a1a">config.py</text>
    <text x="56" y="185" font-family="Helvetica,Arial,sans-serif"
          font-size="12" fill="#444">paths · thresholds · model registry</text>
  </g>
  <g>
    <rect x="40" y="240" width="250" height="62" rx="8"
          fill="#d7ecd9" stroke="#2f7d32" stroke-width="2"/>
    <rect x="40" y="240" width="6" height="62" rx="3" fill="#2f7d32"/>
    <text x="56" y="265" font-family="monospace" font-size="14"
          font-weight="700" fill="#1a1a1a">production.py</text>
    <text x="56" y="285" font-family="Helvetica,Arial,sans-serif"
          font-size="12" fill="#444">process_batch() — orchestrates per doc</text>
  </g>
  <g>
    <rect x="40" y="360" width="250" height="62" rx="8"
          fill="#eef2f7" stroke="#3763a6" stroke-width="2"/>
    <rect x="40" y="360" width="6" height="62" rx="3" fill="#3763a6"/>
    <text x="56" y="385" font-family="monospace" font-size="14"
          font-weight="700" fill="#1a1a1a">preprocessor.py</text>
    <text x="56" y="405" font-family="Helvetica,Arial,sans-serif"
          font-size="12" fill="#444">preprocess() — file → Element list</text>
  </g>
  <g>
    <rect x="330" y="360" width="250" height="62" rx="8"
          fill="#eef2f7" stroke="#3763a6" stroke-width="2"/>
    <rect x="330" y="360" width="6" height="62" rx="3" fill="#3763a6"/>
    <text x="346" y="385" font-family="monospace" font-size="14"
          font-weight="700" fill="#1a1a1a">ai_parse_client.py</text>
    <text x="346" y="405" font-family="Helvetica,Arial,sans-serif"
          font-size="12" fill="#444">OCR fallback (scanned pages)</text>
  </g>
  <g>
    <rect x="620" y="360" width="250" height="62" rx="8"
          fill="#e8eef7" stroke="#3763a6" stroke-width="2"/>
    <rect x="620" y="360" width="6" height="62" rx="3" fill="#3763a6"/>
    <text x="636" y="385" font-family="monospace" font-size="14"
          font-weight="700" fill="#1a1a1a">schema.py</text>
    <text x="636" y="405" font-family="Helvetica,Arial,sans-serif"
          font-size="12" fill="#444">Element / Claim contracts</text>
  </g>
  <g>
    <rect x="40" y="470" width="250" height="62" rx="8"
          fill="#eef2f7" stroke="#3763a6" stroke-width="2"/>
    <rect x="40" y="470" width="6" height="62" rx="3" fill="#3763a6"/>
    <text x="56" y="495" font-family="monospace" font-size="14"
          font-weight="700" fill="#1a1a1a">extractor.py</text>
    <text x="56" y="515" font-family="Helvetica,Arial,sans-serif"
          font-size="12" fill="#444">extract() — Element → Claim</text>
  </g>
  <g>
    <rect x="400" y="452" width="250" height="62" rx="8"
          fill="#f4f1ea" stroke="#8a6d1f" stroke-width="2"/>
    <rect x="400" y="452" width="6" height="62" rx="3" fill="#8a6d1f"/>
    <text x="416" y="477" font-family="monospace" font-size="14"
          font-weight="700" fill="#1a1a1a">routing.py</text>
    <text x="416" y="497" font-family="Helvetica,Arial,sans-serif"
          font-size="12" fill="#444">decide_start_tier()</text>
  </g>
  <g>
    <rect x="400" y="524" width="250" height="62" rx="8"
          fill="#f4f1ea" stroke="#8a6d1f" stroke-width="2"/>
    <rect x="400" y="524" width="6" height="62" rx="3" fill="#8a6d1f"/>
    <text x="416" y="549" font-family="monospace" font-size="14"
          font-weight="700" fill="#1a1a1a">figure_preprocessor.py</text>
    <text x="416" y="569" font-family="Helvetica,Arial,sans-serif"
          font-size="12" fill="#444">crop_and_zoom() — chart figures</text>
  </g>
  <g>
    <rect x="700" y="452" width="250" height="62" rx="8"
          fill="#f7e8e8" stroke="#a63737" stroke-width="2"/>
    <rect x="700" y="452" width="6" height="62" rx="3" fill="#a63737"/>
    <text x="716" y="477" font-family="monospace" font-size="14"
          font-weight="700" fill="#1a1a1a">llm_client.py</text>
    <text x="716" y="497" font-family="Helvetica,Arial,sans-serif"
          font-size="12" fill="#444">extract() — forced-JSON (+image)</text>
  </g>
  <g>
    <rect x="700" y="524" width="250" height="62" rx="8"
          fill="#f4f1ea" stroke="#8a6d1f" stroke-width="2"/>
    <rect x="700" y="524" width="6" height="62" rx="3" fill="#8a6d1f"/>
    <text x="716" y="549" font-family="monospace" font-size="14"
          font-weight="700" fill="#1a1a1a">prompts.py / prompt_registry.py</text>
    <text x="716" y="569" font-family="Helvetica,Arial,sans-serif"
          font-size="12" fill="#444">build_prompt() — few-shots</text>
  </g>
  <g>
    <rect x="1000" y="452" width="250" height="62" rx="8"
          fill="#f4f1ea" stroke="#8a6d1f" stroke-width="2"/>
    <rect x="1000" y="452" width="6" height="62" rx="3" fill="#8a6d1f"/>
    <text x="1016" y="477" font-family="monospace" font-size="14"
          font-weight="700" fill="#1a1a1a">dictionary.py</text>
    <text x="1016" y="497" font-family="Helvetica,Arial,sans-serif"
          font-size="12" fill="#444">canonical_metric()</text>
  </g>
  <g>
    <rect x="1000" y="524" width="250" height="62" rx="8"
          fill="#f4f1ea" stroke="#8a6d1f" stroke-width="2"/>
    <rect x="1000" y="524" width="6" height="62" rx="3" fill="#8a6d1f"/>
    <text x="1016" y="549" font-family="monospace" font-size="14"
          font-weight="700" fill="#1a1a1a">metric_normaliser.py</text>
    <text x="1016" y="569" font-family="Helvetica,Arial,sans-serif"
          font-size="12" fill="#444">classify_metric()</text>
  </g>
  <g>
    <rect x="40" y="610" width="250" height="62" rx="8"
          fill="#eef2f7" stroke="#3763a6" stroke-width="2"/>
    <rect x="40" y="610" width="6" height="62" rx="3" fill="#3763a6"/>
    <text x="56" y="635" font-family="monospace" font-size="14"
          font-weight="700" fill="#1a1a1a">claim_quant_matcher.py</text>
    <text x="56" y="655" font-family="Helvetica,Arial,sans-serif"
          font-size="12" fill="#444">match_all() — claim → metric</text>
  </g>
  <g>
    <rect x="40" y="700" width="250" height="62" rx="8"
          fill="#eef2f7" stroke="#3763a6" stroke-width="2"/>
    <rect x="40" y="700" width="6" height="62" rx="3" fill="#3763a6"/>
    <text x="56" y="725" font-family="monospace" font-size="14"
          font-weight="700" fill="#1a1a1a">validator.py</text>
    <text x="56" y="745" font-family="Helvetica,Arial,sans-serif"
          font-size="12" fill="#444">reconcile() — magnitude conflicts</text>
  </g>
  <g>
    <rect x="40" y="790" width="250" height="62" rx="8"
          fill="#eef2f7" stroke="#3763a6" stroke-width="2"/>
    <rect x="40" y="790" width="6" height="62" rx="3" fill="#3763a6"/>
    <text x="56" y="815" font-family="monospace" font-size="14"
          font-weight="700" fill="#1a1a1a">validator.py</text>
    <text x="56" y="835" font-family="Helvetica,Arial,sans-serif"
          font-size="12" fill="#444">gate_for_review() — clean vs review</text>
  </g>
  <g>
    <rect x="40" y="890" width="250" height="62" rx="8"
          fill="#e8eef7" stroke="#3763a6" stroke-width="2"/>
    <rect x="40" y="890" width="6" height="62" rx="3" fill="#3763a6"/>
    <text x="56" y="915" font-family="monospace" font-size="14"
          font-weight="700" fill="#1a1a1a">storage.py</text>
    <text x="56" y="935" font-family="Helvetica,Arial,sans-serif"
          font-size="12" fill="#444">write_silver / write_gold_metrics</text>
  </g>
  <g>
    <rect x="330" y="890" width="250" height="62" rx="8"
          fill="#e8eef7" stroke="#3763a6" stroke-width="2"/>
    <rect x="330" y="890" width="6" height="62" rx="3" fill="#3763a6"/>
    <text x="346" y="915" font-family="monospace" font-size="14"
          font-weight="700" fill="#1a1a1a">storage.py</text>
    <text x="346" y="935" font-family="Helvetica,Arial,sans-serif"
          font-size="12" fill="#444">write_quarantine()</text>
  </g>
  <g>
    <rect x="620" y="700" width="250" height="62" rx="8"
          fill="#eef2f7" stroke="#3763a6" stroke-width="2"/>
    <rect x="620" y="700" width="6" height="62" rx="3" fill="#3763a6"/>
    <text x="636" y="725" font-family="monospace" font-size="14"
          font-weight="700" fill="#1a1a1a">metric_normaliser.py</text>
    <text x="636" y="745" font-family="Helvetica,Arial,sans-serif"
          font-size="12" fill="#444">check_compatible() — structural</text>
  </g>
  <g>
    <rect x="620" y="800" width="250" height="62" rx="8"
          fill="#f7e8e8" stroke="#a63737" stroke-width="2"/>
    <rect x="620" y="800" width="6" height="62" rx="3" fill="#a63737"/>
    <text x="636" y="825" font-family="monospace" font-size="14"
          font-weight="700" fill="#1a1a1a">ai_search_store.py</text>
    <text x="636" y="845" font-family="Helvetica,Arial,sans-serif"
          font-size="12" fill="#444">index_many() — push chunks</text>
  </g>
  <g>
    <rect x="620" y="990" width="250" height="62" rx="8"
          fill="#e8eef7" stroke="#3763a6" stroke-width="2"/>
    <rect x="620" y="990" width="6" height="62" rx="3" fill="#3763a6"/>
    <text x="636" y="1015" font-family="monospace" font-size="14"
          font-weight="700" fill="#1a1a1a">audit_log.py → storage.write_audit</text>
    <text x="636" y="1035" font-family="Helvetica,Arial,sans-serif"
          font-size="12" fill="#444">every stage emits an event</text>
  </g>
  <g>
    <rect x="980" y="40" width="16" height="16" rx="3" fill="#d7ecd9" stroke="#2f7d32" stroke-width="2"/>
    <text x="1004" y="53" font-size="12" fill="#333">entry / orchestration</text>
    <rect x="980" y="64" width="16" height="16" rx="3" fill="#eef2f7" stroke="#3763a6" stroke-width="2"/>
    <text x="1004" y="77" font-size="12" fill="#333">pipeline stage</text>
    <rect x="980" y="88" width="16" height="16" rx="3" fill="#f4f1ea" stroke="#8a6d1f" stroke-width="2"/>
    <text x="1004" y="101" font-size="12" fill="#333">per-element helper</text>
    <rect x="980" y="112" width="16" height="16" rx="3" fill="#e8eef7" stroke="#3763a6" stroke-width="2"/>
    <text x="1004" y="125" font-size="12" fill="#333">storage</text>
    <rect x="980" y="136" width="16" height="16" rx="3" fill="#f7e8e8" stroke="#a63737" stroke-width="2"/>
    <text x="1004" y="149" font-size="12" fill="#333">external service</text>
  </g>
</svg>